<svg width="12" height="12" viewBox="0 0 12 12" fill="none" xmlns="http://www.w3.org/2000/svg">
<path d="M5.99935 11.8307C2.7776 11.8307 0.166016 9.21915 0.166016 5.9974C0.166016 2.77565 2.7776 0.164062 5.99935 0.164062C9.2211 0.164062 11.8327 2.77565 11.8327 5.9974C11.8327 9.21915 9.2211 11.8307 5.99935 11.8307ZM5.99935 10.6641C7.23703 10.6641 8.42401 10.1724 9.29918 9.29723C10.1744 8.42206 10.666 7.23507 10.666 5.9974C10.666 4.75972 10.1744 3.57273 9.29918 2.69756C8.42401 1.82239 7.23703 1.33073 5.99935 1.33073C4.76167 1.33073 3.57469 1.82239 2.69952 2.69756C1.82435 3.57273 1.33268 4.75972 1.33268 5.9974C1.33268 7.23507 1.82435 8.42206 2.69952 9.29723C3.57469 10.1724 4.76167 10.6641 5.99935 10.6641V10.6641ZM6.58268 5.9974H8.91602V7.16406H5.41602V3.08073H6.58268V5.9974Z" fill="#4E4B66"/>
</svg>
