<svg width="108" height="115" viewBox="0 0 108 115" fill="none" xmlns="http://www.w3.org/2000/svg">
<rect width="108" height="90" rx="20" fill="#504F4F"/>
<path d="M48 44C48 38.4772 52.4772 34 58 34H108V70C108 81.0457 99.0457 90 88 90H48V44Z" fill="black"/>
<path d="M55.92 56L60.96 44.8H63.008L68.064 56H65.888L61.552 45.904H62.384L58.064 56H55.92ZM58.24 53.408L58.8 51.776H64.848L65.408 53.408H58.24ZM74.5604 56V54.272L74.4484 53.904V50.88C74.4484 50.2933 74.2724 49.84 73.9204 49.52C73.5684 49.1893 73.035 49.024 72.3204 49.024C71.8404 49.024 71.3657 49.0987 70.8964 49.248C70.4377 49.3973 70.0484 49.6053 69.7284 49.872L68.9444 48.416C69.403 48.064 69.947 47.8027 70.5764 47.632C71.2164 47.4507 71.8777 47.36 72.5604 47.36C73.7977 47.36 74.7524 47.6587 75.4244 48.256C76.107 48.8427 76.4484 49.7547 76.4484 50.992V56H74.5604ZM71.8724 56.112C71.2324 56.112 70.6724 56.0053 70.1924 55.792C69.7124 55.568 69.339 55.264 69.0724 54.88C68.8164 54.4853 68.6884 54.0427 68.6884 53.552C68.6884 53.072 68.8004 52.64 69.0244 52.256C69.259 51.872 69.6377 51.568 70.1604 51.344C70.683 51.12 71.3764 51.008 72.2404 51.008H74.7204V52.336H72.3844C71.7017 52.336 71.243 52.448 71.0084 52.672C70.7737 52.8853 70.6564 53.152 70.6564 53.472C70.6564 53.8347 70.8004 54.1227 71.0884 54.336C71.3764 54.5493 71.7764 54.656 72.2884 54.656C72.779 54.656 73.2164 54.544 73.6004 54.32C73.995 54.096 74.2777 53.7653 74.4484 53.328L74.7844 54.528C74.5924 55.0293 74.2457 55.4187 73.7444 55.696C73.2537 55.9733 72.6297 56.112 71.8724 56.112Z" fill="white"/>
<path d="M37.504 111V99.8H42.4C43.616 99.8 44.6827 100.035 45.6 100.504C46.5173 100.973 47.232 101.624 47.744 102.456C48.256 103.288 48.512 104.269 48.512 105.4C48.512 106.52 48.256 107.501 47.744 108.344C47.232 109.176 46.5173 109.827 45.6 110.296C44.6827 110.765 43.616 111 42.4 111H37.504ZM39.584 109.24H42.304C43.1467 109.24 43.872 109.08 44.48 108.76C45.0987 108.44 45.5733 107.992 45.904 107.416C46.2453 106.84 46.416 106.168 46.416 105.4C46.416 104.621 46.2453 103.949 45.904 103.384C45.5733 102.808 45.0987 102.36 44.48 102.04C43.872 101.72 43.1467 101.56 42.304 101.56H39.584V109.24ZM55.7948 111V109.272L55.6828 108.904V105.88C55.6828 105.293 55.5068 104.84 55.1548 104.52C54.8028 104.189 54.2694 104.024 53.5548 104.024C53.0748 104.024 52.6001 104.099 52.1308 104.248C51.6721 104.397 51.2828 104.605 50.9628 104.872L50.1788 103.416C50.6374 103.064 51.1814 102.803 51.8108 102.632C52.4508 102.451 53.1121 102.36 53.7948 102.36C55.0321 102.36 55.9868 102.659 56.6588 103.256C57.3414 103.843 57.6828 104.755 57.6828 105.992V111H55.7948ZM53.1068 111.112C52.4668 111.112 51.9068 111.005 51.4268 110.792C50.9468 110.568 50.5734 110.264 50.3068 109.88C50.0508 109.485 49.9228 109.043 49.9228 108.552C49.9228 108.072 50.0348 107.64 50.2588 107.256C50.4934 106.872 50.8721 106.568 51.3948 106.344C51.9174 106.12 52.6108 106.008 53.4748 106.008H55.9548V107.336H53.6188C52.9361 107.336 52.4774 107.448 52.2428 107.672C52.0081 107.885 51.8908 108.152 51.8908 108.472C51.8908 108.835 52.0348 109.123 52.3228 109.336C52.6108 109.549 53.0108 109.656 53.5228 109.656C54.0134 109.656 54.4508 109.544 54.8348 109.32C55.2294 109.096 55.5121 108.765 55.6828 108.328L56.0188 109.528C55.8268 110.029 55.4801 110.419 54.9788 110.696C54.4881 110.973 53.8641 111.112 53.1068 111.112ZM60.2495 111V102.456H62.1535V104.808L61.9295 104.12C62.1855 103.544 62.5855 103.107 63.1295 102.808C63.6842 102.509 64.3722 102.36 65.1935 102.36V104.264C65.1082 104.243 65.0282 104.232 64.9535 104.232C64.8788 104.221 64.8042 104.216 64.7295 104.216C63.9722 104.216 63.3695 104.44 62.9215 104.888C62.4735 105.325 62.2495 105.981 62.2495 106.856V111H60.2495ZM68.5221 109.096L68.5701 106.584L73.0341 102.456H75.4341L71.6421 106.264L70.5861 107.144L68.5221 109.096ZM66.8901 111V99.128H68.8901V111H66.8901ZM73.3381 111L70.2181 107.144L71.4821 105.544L75.7701 111H73.3381Z" fill="black"/>
</svg>
