<svg width="108" height="115" viewBox="0 0 108 115" fill="none" xmlns="http://www.w3.org/2000/svg">
<rect x="0.5" y="0.5" width="107" height="89" rx="19.5" fill="#F0EEEE"/>
<path d="M73 40C73 34.4772 77.4772 30 83 30H108V70C108 81.0457 99.0457 90 88 90H73V40Z" fill="white"/>
<rect x="0.5" y="0.5" width="107" height="89" rx="19.5" stroke="black"/>
<path d="M1 20C1 9.50659 9.50659 1 20 1H55V89H20C9.50659 89 1 80.4934 1 70V20Z" fill="#504F4F"/>
<path d="M20 39C20 33.4772 24.4772 29 30 29H55V89H20V39Z" fill="black"/>
<path d="M27.92 55L32.96 43.8H35.008L40.064 55H37.888L33.552 44.904H34.384L30.064 55H27.92ZM30.24 52.408L30.8 50.776H36.848L37.408 52.408H30.24ZM46.5604 55V53.272L46.4484 52.904V49.88C46.4484 49.2933 46.2724 48.84 45.9204 48.52C45.5684 48.1893 45.035 48.024 44.3204 48.024C43.8404 48.024 43.3657 48.0987 42.8964 48.248C42.4377 48.3973 42.0484 48.6053 41.7284 48.872L40.9444 47.416C41.403 47.064 41.947 46.8027 42.5764 46.632C43.2164 46.4507 43.8777 46.36 44.5604 46.36C45.7977 46.36 46.7524 46.6587 47.4244 47.256C48.107 47.8427 48.4484 48.7547 48.4484 49.992V55H46.5604ZM43.8724 55.112C43.2324 55.112 42.6724 55.0053 42.1924 54.792C41.7124 54.568 41.339 54.264 41.0724 53.88C40.8164 53.4853 40.6884 53.0427 40.6884 52.552C40.6884 52.072 40.8004 51.64 41.0244 51.256C41.259 50.872 41.6377 50.568 42.1604 50.344C42.683 50.12 43.3764 50.008 44.2404 50.008H46.7204V51.336H44.3844C43.7017 51.336 43.243 51.448 43.0084 51.672C42.7737 51.8853 42.6564 52.152 42.6564 52.472C42.6564 52.8347 42.8004 53.1227 43.0884 53.336C43.3764 53.5493 43.7764 53.656 44.2884 53.656C44.779 53.656 45.2164 53.544 45.6004 53.32C45.995 53.096 46.2777 52.7653 46.4484 52.328L46.7844 53.528C46.5924 54.0293 46.2457 54.4187 45.7444 54.696C45.2537 54.9733 44.6297 55.112 43.8724 55.112Z" fill="white"/>
<path d="M79.92 55L84.96 43.8H87.008L92.064 55H89.888L85.552 44.904H86.384L82.064 55H79.92ZM82.24 52.408L82.8 50.776H88.848L89.408 52.408H82.24ZM98.5604 55V53.272L98.4484 52.904V49.88C98.4484 49.2933 98.2724 48.84 97.9204 48.52C97.5684 48.1893 97.035 48.024 96.3204 48.024C95.8404 48.024 95.3657 48.0987 94.8964 48.248C94.4377 48.3973 94.0484 48.6053 93.7284 48.872L92.9444 47.416C93.403 47.064 93.947 46.8027 94.5764 46.632C95.2164 46.4507 95.8777 46.36 96.5604 46.36C97.7977 46.36 98.7524 46.6587 99.4244 47.256C100.107 47.8427 100.448 48.7547 100.448 49.992V55H98.5604ZM95.8724 55.112C95.2324 55.112 94.6724 55.0053 94.1924 54.792C93.7124 54.568 93.339 54.264 93.0724 53.88C92.8164 53.4853 92.6884 53.0427 92.6884 52.552C92.6884 52.072 92.8004 51.64 93.0244 51.256C93.259 50.872 93.6377 50.568 94.1604 50.344C94.683 50.12 95.3764 50.008 96.2404 50.008H98.7204V51.336H96.3844C95.7017 51.336 95.243 51.448 95.0084 51.672C94.7737 51.8853 94.6564 52.152 94.6564 52.472C94.6564 52.8347 94.8004 53.1227 95.0884 53.336C95.3764 53.5493 95.7764 53.656 96.2884 53.656C96.779 53.656 97.2164 53.544 97.6004 53.32C97.995 53.096 98.2777 52.7653 98.4484 52.328L98.7844 53.528C98.5924 54.0293 98.2457 54.4187 97.7444 54.696C97.2537 54.9733 96.6297 55.112 95.8724 55.112Z" fill="black"/>
<path d="M34.92 111L39.96 99.8H42.008L47.064 111H44.888L40.552 100.904H41.384L37.064 111H34.92ZM37.24 108.408L37.8 106.776H43.848L44.408 108.408H37.24ZM51.7561 111.112C51.0308 111.112 50.3908 110.979 49.8361 110.712C49.2815 110.435 48.8495 110.019 48.5401 109.464C48.2308 108.899 48.0761 108.189 48.0761 107.336V102.456H50.0761V107.064C50.0761 107.832 50.2468 108.408 50.5881 108.792C50.9401 109.165 51.4361 109.352 52.0761 109.352C52.5455 109.352 52.9508 109.256 53.2921 109.064C53.6441 108.872 53.9161 108.584 54.1081 108.2C54.3108 107.816 54.4121 107.341 54.4121 106.776V102.456H56.4121V111H54.5081V108.696L54.8441 109.4C54.5561 109.955 54.1348 110.381 53.5801 110.68C53.0255 110.968 52.4175 111.112 51.7561 111.112ZM62.2468 111.112C61.3081 111.112 60.5828 110.872 60.0707 110.392C59.5588 109.901 59.3028 109.181 59.3028 108.232V100.568H61.3028V108.184C61.3028 108.589 61.4041 108.904 61.6068 109.128C61.8201 109.352 62.1134 109.464 62.4868 109.464C62.9348 109.464 63.3081 109.347 63.6068 109.112L64.1668 110.536C63.9321 110.728 63.6441 110.872 63.3028 110.968C62.9614 111.064 62.6094 111.112 62.2468 111.112ZM57.8948 104.12V102.52H63.5908V104.12H57.8948ZM69.3708 111.112C68.4961 111.112 67.7174 110.925 67.0348 110.552C66.3521 110.168 65.8134 109.645 65.4188 108.984C65.0241 108.323 64.8268 107.571 64.8268 106.728C64.8268 105.875 65.0241 105.123 65.4188 104.472C65.8134 103.811 66.3521 103.293 67.0348 102.92C67.7174 102.547 68.4961 102.36 69.3708 102.36C70.2561 102.36 71.0401 102.547 71.7228 102.92C72.4161 103.293 72.9548 103.805 73.3388 104.456C73.7334 105.107 73.9308 105.864 73.9308 106.728C73.9308 107.571 73.7334 108.323 73.3388 108.984C72.9548 109.645 72.4161 110.168 71.7228 110.552C71.0401 110.925 70.2561 111.112 69.3708 111.112ZM69.3708 109.4C69.8614 109.4 70.2988 109.293 70.6828 109.08C71.0668 108.867 71.3654 108.557 71.5788 108.152C71.8028 107.747 71.9148 107.272 71.9148 106.728C71.9148 106.173 71.8028 105.699 71.5788 105.304C71.3654 104.899 71.0668 104.589 70.6828 104.376C70.2988 104.163 69.8668 104.056 69.3868 104.056C68.8961 104.056 68.4588 104.163 68.0748 104.376C67.7014 104.589 67.4028 104.899 67.1788 105.304C66.9548 105.699 66.8428 106.173 66.8428 106.728C66.8428 107.272 66.9548 107.747 67.1788 108.152C67.4028 108.557 67.7014 108.867 68.0748 109.08C68.4588 109.293 68.8908 109.4 69.3708 109.4Z" fill="black"/>
</svg>
