<svg width="108" height="115" viewBox="0 0 108 115" fill="none" xmlns="http://www.w3.org/2000/svg">
<path d="M33.504 111V99.8H35.584V109.24H41.44V111H33.504ZM42.8901 111V102.456H44.8901V111H42.8901ZM43.8981 101.048C43.5248 101.048 43.2155 100.931 42.9701 100.696C42.7355 100.461 42.6181 100.179 42.6181 99.848C42.6181 99.5067 42.7355 99.224 42.9701 99C43.2155 98.7653 43.5248 98.648 43.8981 98.648C44.2715 98.648 44.5755 98.76 44.8101 98.984C45.0555 99.1973 45.1781 99.4693 45.1781 99.8C45.1781 100.152 45.0608 100.451 44.8261 100.696C44.5915 100.931 44.2821 101.048 43.8981 101.048ZM51.3871 114.216C50.5978 114.216 49.8245 114.109 49.0671 113.896C48.3205 113.693 47.7071 113.395 47.2271 113L48.1231 111.496C48.4965 111.805 48.9658 112.051 49.5311 112.232C50.1071 112.424 50.6885 112.52 51.2751 112.52C52.2138 112.52 52.9018 112.301 53.3391 111.864C53.7765 111.437 53.9951 110.792 53.9951 109.928V108.408L54.1551 106.472L54.0911 104.536V102.456H55.9951V109.704C55.9951 111.251 55.6005 112.387 54.8111 113.112C54.0218 113.848 52.8805 114.216 51.3871 114.216ZM51.1311 110.616C50.3205 110.616 49.5845 110.445 48.9231 110.104C48.2725 109.752 47.7551 109.267 47.3711 108.648C46.9978 108.029 46.8111 107.304 46.8111 106.472C46.8111 105.651 46.9978 104.931 47.3711 104.312C47.7551 103.693 48.2725 103.213 48.9231 102.872C49.5845 102.531 50.3205 102.36 51.1311 102.36C51.8565 102.36 52.5071 102.504 53.0831 102.792C53.6591 103.08 54.1178 103.528 54.4591 104.136C54.8111 104.744 54.9871 105.523 54.9871 106.472C54.9871 107.421 54.8111 108.205 54.4591 108.824C54.1178 109.432 53.6591 109.885 53.0831 110.184C52.5071 110.472 51.8565 110.616 51.1311 110.616ZM51.4351 108.92C51.9365 108.92 52.3845 108.819 52.7791 108.616C53.1738 108.403 53.4778 108.115 53.6911 107.752C53.9151 107.379 54.0271 106.952 54.0271 106.472C54.0271 105.992 53.9151 105.571 53.6911 105.208C53.4778 104.835 53.1738 104.552 52.7791 104.36C52.3845 104.157 51.9365 104.056 51.4351 104.056C50.9338 104.056 50.4805 104.157 50.0751 104.36C49.6805 104.552 49.3711 104.835 49.1471 105.208C48.9338 105.571 48.8271 105.992 48.8271 106.472C48.8271 106.952 48.9338 107.379 49.1471 107.752C49.3711 108.115 49.6805 108.403 50.0751 108.616C50.4805 108.819 50.9338 108.92 51.4351 108.92ZM63.4725 102.36C64.1552 102.36 64.7632 102.493 65.2965 102.76C65.8405 103.027 66.2672 103.437 66.5765 103.992C66.8858 104.536 67.0405 105.24 67.0405 106.104V111H65.0405V106.36C65.0405 105.603 64.8592 105.037 64.4965 104.664C64.1445 104.291 63.6485 104.104 63.0085 104.104C62.5392 104.104 62.1232 104.2 61.7605 104.392C61.3978 104.584 61.1152 104.872 60.9125 105.256C60.7205 105.629 60.6245 106.104 60.6245 106.68V111H58.6245V99.128H60.6245V104.76L60.1925 104.056C60.4912 103.512 60.9232 103.096 61.4885 102.808C62.0645 102.509 62.7258 102.36 63.4725 102.36ZM72.7936 111.112C71.855 111.112 71.1296 110.872 70.6176 110.392C70.1056 109.901 69.8496 109.181 69.8496 108.232V100.568H71.8496V108.184C71.8496 108.589 71.951 108.904 72.1536 109.128C72.367 109.352 72.6603 109.464 73.0336 109.464C73.4816 109.464 73.855 109.347 74.1536 109.112L74.7136 110.536C74.479 110.728 74.191 110.872 73.8496 110.968C73.5083 111.064 73.1563 111.112 72.7936 111.112ZM68.4416 104.12V102.52H74.1376V104.12H68.4416Z" fill="black"/>
<rect x="0.5" y="0.5" width="107" height="89" rx="19.5" fill="#F0EEEE"/>
<path d="M48 44C48 38.4772 52.4772 34 58 34H108V70C108 81.0457 99.0457 90 88 90H48V44Z" fill="white"/>
<path d="M55.92 56L60.96 44.8H63.008L68.064 56H65.888L61.552 45.904H62.384L58.064 56H55.92ZM58.24 53.408L58.8 51.776H64.848L65.408 53.408H58.24ZM74.5604 56V54.272L74.4484 53.904V50.88C74.4484 50.2933 74.2724 49.84 73.9204 49.52C73.5684 49.1893 73.035 49.024 72.3204 49.024C71.8404 49.024 71.3657 49.0987 70.8964 49.248C70.4377 49.3973 70.0484 49.6053 69.7284 49.872L68.9444 48.416C69.403 48.064 69.947 47.8027 70.5764 47.632C71.2164 47.4507 71.8777 47.36 72.5604 47.36C73.7977 47.36 74.7524 47.6587 75.4244 48.256C76.107 48.8427 76.4484 49.7547 76.4484 50.992V56H74.5604ZM71.8724 56.112C71.2324 56.112 70.6724 56.0053 70.1924 55.792C69.7124 55.568 69.339 55.264 69.0724 54.88C68.8164 54.4853 68.6884 54.0427 68.6884 53.552C68.6884 53.072 68.8004 52.64 69.0244 52.256C69.259 51.872 69.6377 51.568 70.1604 51.344C70.683 51.12 71.3764 51.008 72.2404 51.008H74.7204V52.336H72.3844C71.7017 52.336 71.243 52.448 71.0084 52.672C70.7737 52.8853 70.6564 53.152 70.6564 53.472C70.6564 53.8347 70.8004 54.1227 71.0884 54.336C71.3764 54.5493 71.7764 54.656 72.2884 54.656C72.779 54.656 73.2164 54.544 73.6004 54.32C73.995 54.096 74.2777 53.7653 74.4484 53.328L74.7844 54.528C74.5924 55.0293 74.2457 55.4187 73.7444 55.696C73.2537 55.9733 72.6297 56.112 71.8724 56.112Z" fill="black"/>
<rect x="0.5" y="0.5" width="107" height="89" rx="19.5" stroke="#D9D9D9"/>
</svg>
