<svg width="35" height="35" viewBox="0 0 35 35" fill="none" xmlns="http://www.w3.org/2000/svg">
<g id="help">
<path id="Oval 2" d="M17.5006 20.4167C17.5006 17.5 19.799 17.0119 20.5904 16.2224C21.3844 15.4304 21.8756 14.3351 21.8756 13.125C21.8756 10.7088 19.9169 8.75 17.5006 8.75C16.1941 8.75 15.0213 9.32273 14.2197 10.2308C13.849 10.6507 13.5577 11.1423 13.3691 11.6821" stroke="white" stroke-linecap="round"/>
<path id="Oval" fill-rule="evenodd" clip-rule="evenodd" d="M17.4993 26.2526C18.3048 26.2526 18.9577 25.5997 18.9577 24.7943C18.9577 23.9889 18.3048 23.3359 17.4993 23.3359C16.6939 23.3359 16.041 23.9889 16.041 24.7943C16.041 25.5997 16.6939 26.2526 17.4993 26.2526Z" fill="white"/>
<path id="Oval_2" fill-rule="evenodd" clip-rule="evenodd" d="M17.4993 32.0807C25.5535 32.0807 32.0827 25.5515 32.0827 17.4974C32.0827 9.44324 25.5535 2.91406 17.4993 2.91406C9.4452 2.91406 2.91602 9.44324 2.91602 17.4974C2.91602 25.5515 9.4452 32.0807 17.4993 32.0807Z" stroke="white"/>
</g>
</svg>
