<svg width="150" height="94" viewBox="0 0 150 94" fill="none" xmlns="http://www.w3.org/2000/svg">
<g clip-path="url(#clip0_249_790)">
<mask id="mask0_249_790" style="mask-type:alpha" maskUnits="userSpaceOnUse" x="1" y="0" width="60" height="57">
<path d="M1.19141 0H60.9565V56.674H1.19141V0Z" fill="white"/>
</mask>
<g mask="url(#mask0_249_790)">
<path fill-rule="evenodd" clip-rule="evenodd" d="M18.4255 34.0035C8.9013 33.9759 1.19141 26.3748 1.19141 17.0011C1.19141 7.61192 8.92927 0 18.4802 0H18.5058H31.566C30.0366 1.42065 29.0813 3.43373 29.0813 5.66704C29.0813 7.90155 30.0366 9.91345 31.566 11.3365H18.4778C15.2958 11.3365 12.7173 13.8714 12.7173 17.0011C12.7173 20.1321 15.2958 22.6706 18.4778 22.6706H43.6116L43.6652 22.6682C53.215 22.6682 60.9565 30.28 60.9565 39.6717C60.9565 49.0597 53.215 56.6741 43.6652 56.6741L43.6384 56.6717H6.95313C3.77233 56.6717 1.19141 54.1356 1.19141 51.0059C1.19141 47.8833 3.7565 45.3532 6.92514 45.3388H43.6652C46.8471 45.3388 49.4293 42.8003 49.4293 39.6717C49.4293 36.5408 46.8471 34.0035 43.6652 34.0035H18.4255Z" fill="white"/>
</g>
<mask id="mask1_249_790" style="mask-type:alpha" maskUnits="userSpaceOnUse" x="31" y="0" width="118" height="57">
<path d="M31.9258 0H148.465V56.6738H31.9258V0Z" fill="white"/>
</mask>
<g mask="url(#mask1_249_790)">
<path fill-rule="evenodd" clip-rule="evenodd" d="M74.829 0C90.7417 0 103.643 12.6877 103.643 28.3376C103.643 28.5448 103.641 28.7506 103.636 28.9563L103.643 28.9659C103.643 38.0093 111.097 45.3389 120.289 45.3389C129.487 45.3389 136.941 38.0093 136.941 28.9659V6.61136V5.66585C136.941 2.53731 139.52 0 142.702 0C145.885 0 148.466 2.53731 148.466 5.66585V28.9659C148.466 44.2687 135.851 56.6742 120.289 56.6742C111.054 56.6742 102.855 52.3032 97.7178 45.5482C92.4513 52.3116 84.1586 56.6742 74.829 56.6742H54.1125C58.3616 54.1439 61.5825 50.1177 63.027 45.3389H74.829C84.3046 45.3389 91.9987 37.8417 92.1155 28.5483C92.1142 28.2851 92.1069 27.999 92.1045 27.6973C91.7613 18.6025 84.1586 11.3353 74.829 11.3353H51.7773H37.6888C34.5054 11.3353 31.9258 8.79798 31.9258 5.66585C31.9258 2.53731 34.5054 0 37.6888 0H74.829Z" fill="white"/>
</g>
<path fill-rule="evenodd" clip-rule="evenodd" d="M92.8008 2.98971C93.7718 1.21001 95.6823 0 97.88 0C101.063 0 103.643 2.53731 103.643 5.66705V16.0006C101.311 10.7417 97.5342 6.24034 92.8008 2.98971Z" fill="white"/>
<path fill-rule="evenodd" clip-rule="evenodd" d="M114.869 28.3389C114.869 31.4688 117.449 34.0049 120.632 34.0049C123.815 34.0049 126.396 31.4688 126.396 28.3389V5.6684C126.396 4.13884 125.781 2.75409 124.78 1.73438C123.433 6.15551 119.597 9.51625 114.869 10.2427V28.3389Z" fill="white"/>
<path fill-rule="evenodd" clip-rule="evenodd" d="M83.1622 20.2613C83.0161 19.9382 81.4634 19.4726 81.2103 19.3997C79.7684 18.9879 78.1987 18.9508 76.7214 19.2559C76.4111 19.3291 75.3342 19.6149 75.1152 19.7587C75.1882 19.9023 75.7722 20.6025 75.9001 20.7831L76.3199 21.2679C76.6666 21.6807 77.4685 22.667 77.78 22.9722L78.3995 23.6532C78.509 23.6184 78.6003 23.5275 78.7098 23.4557C78.8009 23.3672 78.8922 23.2942 79.0017 23.2234C79.1112 23.1326 79.1844 23.0787 79.2939 22.989C79.4034 22.9184 79.4763 22.8644 79.5676 22.7746L80.1517 22.3426C80.7541 21.8951 81.2639 21.5001 81.9027 21.0345C82.1217 20.8896 82.9432 20.3343 83.1622 20.2613Z" fill="white"/>
<path fill-rule="evenodd" clip-rule="evenodd" d="M81.867 28.5596C81.7929 28.362 81.3195 27.9313 81.1734 27.7697L80.4433 27.0156L79.5489 27.8415C79.476 27.9132 79.4224 27.9492 79.3494 28.003C79.2947 28.0568 79.257 28.1108 79.1852 28.1825C79.1109 28.2544 79.0391 28.2723 78.9844 28.362C79.1657 28.6853 80.2061 29.6727 80.3899 29.7971L81.5751 28.8108L81.6664 28.7211C81.7575 28.6673 81.7929 28.6313 81.867 28.5596Z" fill="white"/>
<path fill-rule="evenodd" clip-rule="evenodd" d="M79.7678 30.3849C79.7312 30.2413 79.2201 29.7566 79.1106 29.6309C78.9829 29.4873 78.5447 28.9858 78.3988 28.9141C78.198 29.0385 77.7246 29.5411 77.5408 29.7206C77.4861 29.7925 77.4313 29.8642 77.3595 29.9361L76.9386 30.3489C76.8668 30.4387 76.812 30.4387 76.7207 30.5465C76.812 30.7977 77.4497 31.3723 77.7064 31.6237C77.8341 31.7494 77.8695 31.82 78.0701 31.9468C78.1798 31.9108 78.198 31.8378 78.2893 31.7494C78.6178 31.4082 79.494 30.7093 79.7678 30.3849Z" fill="white"/>
<path fill-rule="evenodd" clip-rule="evenodd" d="M79.9683 26.4886C79.949 26.4347 79.8224 26.3103 79.7858 26.2552C79.7129 26.2014 79.7311 26.2014 79.6763 26.1295L79.5668 26.0219L78.3633 24.6406C78.1236 24.8201 77.2317 25.6101 77.1038 25.7705C77.0127 25.8615 76.8848 25.9153 76.8301 26.0757L77.8145 27.1888C77.8887 27.2785 78.3816 27.7633 78.4911 27.7992L79.9683 26.4886Z" fill="white"/>
<path fill-rule="evenodd" clip-rule="evenodd" d="M77.8708 28.2907C77.5605 27.8598 77.2502 27.5905 76.94 27.1955C76.8317 27.0519 76.4653 26.6042 76.3389 26.5312C76.2281 26.5851 75.9725 26.8378 75.8825 26.9251L75.0064 27.806C74.8421 27.9663 74.7144 28.0572 74.5684 28.2715C74.6231 28.3792 74.8421 28.6306 74.9334 28.7036C75.0611 28.828 75.189 29.0256 75.3167 29.1345C75.4627 29.296 75.9907 29.8883 76.1197 29.9411L77.0325 29.1345C77.1225 29.0256 77.8161 28.4343 77.8708 28.2907Z" fill="white"/>
<path fill-rule="evenodd" clip-rule="evenodd" d="M77.4682 32.5589C77.3951 32.4153 77.2491 32.3075 77.1579 32.1831L76.665 31.6433C76.592 31.5535 76.2088 31.1587 76.1357 31.1406C76.0993 31.2125 75.9909 31.3201 75.9191 31.392C75.6624 31.6432 75.2621 32.0921 75.0966 32.2358L74.8592 32.5051C74.8228 32.5589 74.7862 32.5768 74.7315 32.6127L73.8189 33.6361C73.7642 33.6899 73.7458 33.6899 73.7094 33.7426C73.6547 33.7964 73.6547 33.8323 73.5999 33.8683C73.3625 34.0837 72.5972 35.0352 72.5059 35.2147C72.5424 35.2506 72.5059 35.2326 72.5424 35.2506C72.7055 35.3942 73.7458 36.1842 73.91 36.1842C73.9832 36.1842 74.1656 35.9687 74.2022 35.9149L74.768 35.2866C74.9141 35.1609 74.9505 35.0711 75.0784 34.9633L77.4682 32.5589Z" fill="white"/>
<path fill-rule="evenodd" clip-rule="evenodd" d="M86.5931 33.1312L84.4564 31.1049C84.0206 30.7099 83.1081 29.7393 82.9073 29.5609C82.7235 29.3981 82.5227 29.1288 82.3768 29.0391C82.305 29.075 82.2673 29.1121 82.1955 29.1661C81.957 29.3443 81.138 30.1162 80.9531 30.3497C81.0272 30.5125 81.5931 31.014 81.7768 31.1754C81.8657 31.2652 81.9399 31.3563 82.0494 31.4447C82.3961 31.7488 83.1628 32.504 83.4731 32.7362C83.691 32.9157 84.2203 33.4362 84.477 33.6338L85.5345 34.4968C85.7535 34.3878 86.5189 33.3824 86.5931 33.1312Z" fill="white"/>
<path fill-rule="evenodd" clip-rule="evenodd" d="M75.5705 30.5273C75.5522 30.4195 75.1689 29.9539 75.0423 29.8271C74.8586 29.6117 74.2211 28.823 74.0385 28.75C73.9837 28.8589 73.71 29.0731 73.6005 29.2167L72.4687 30.4376C72.1415 30.7607 71.8117 31.1735 71.4857 31.5147C71.4296 31.5685 71.393 31.5866 71.3567 31.6404C71.2848 31.711 71.2106 31.8008 71.1375 31.8916C70.9003 32.1968 70.7908 32.3572 70.4805 32.6265C70.5534 32.9317 70.8821 33.3805 71.0293 33.5781C71.174 33.7576 71.6109 34.2783 71.6863 34.4219C71.8299 34.3681 72.2315 33.9731 72.3228 33.8653L72.5418 33.596C72.7427 33.3448 73.0164 33.0755 73.2536 32.8419C73.2902 32.8062 73.3267 32.7702 73.3644 32.7164C73.4362 32.6265 73.5273 32.5367 73.6005 32.465L73.8377 32.2317L75.0607 31.0121C75.2237 30.8517 75.3892 30.635 75.5705 30.5273Z" fill="white"/>
<path fill-rule="evenodd" clip-rule="evenodd" d="M77.925 24.1185C77.8521 23.9569 75.4804 20.7458 75.0788 20.1534C75.0069 20.0457 74.9329 19.9726 74.8781 19.8828C74.367 19.9547 72.7059 21.0869 72.7268 21.2294L73.1453 21.768C73.8741 22.6309 74.586 23.5453 75.3527 24.4429L76.2823 25.4841C76.4843 25.3932 77.5965 24.3351 77.925 24.1185Z" fill="white"/>
<path fill-rule="evenodd" clip-rule="evenodd" d="M84.7853 35.2708C84.7306 35.1451 84.604 35.0732 84.5298 34.9834L83.6538 34.1937C83.5625 34.1026 83.4907 34.032 83.3799 33.9244L82.96 33.5305C82.7253 33.3331 82.651 33.2433 82.5245 33.1344C82.1228 32.7765 81.4111 31.9675 81.0265 31.6085C80.8805 31.4839 80.7539 31.3941 80.5885 31.1967C80.4997 31.0889 80.4254 31.0159 80.2782 30.9453C80.0592 31.1775 78.7827 32.3815 78.6914 32.5599C78.8557 32.8305 79.4581 33.3677 79.733 33.6011C79.8048 33.6717 79.8425 33.7268 79.8961 33.7806L80.8257 34.6244C80.9 34.6782 80.917 34.7322 80.99 34.786L82.87 36.4006C82.9795 36.4723 82.9966 36.4723 83.1074 36.4185C83.5807 36.1492 83.9639 35.8978 84.3837 35.576L84.7853 35.2708Z" fill="white"/>
<path fill-rule="evenodd" clip-rule="evenodd" d="M87.1766 24.5357C87.1402 24.1766 86.2092 22.7405 85.8807 22.4531C85.7335 22.5082 85.3878 22.7954 85.2612 22.9019L83.7464 24.1586C83.3814 24.4627 82.5234 25.1281 82.2132 25.4333L81.6108 25.9348C81.466 26.0784 81.1375 26.3644 81.0449 26.4913C81.1728 26.7246 81.3736 26.8684 81.5561 27.0479L82.1036 27.6032C82.2132 27.7109 82.3957 27.8377 82.4504 27.9814C82.6878 27.9084 84.44 26.4913 84.7856 26.222C84.968 26.0592 85.1701 25.9348 85.3696 25.7912L86.5743 24.9653C86.6656 24.8947 86.7751 24.8228 86.8664 24.7511C86.9759 24.6601 87.0671 24.6074 87.1766 24.5357Z" fill="white"/>
<path fill-rule="evenodd" clip-rule="evenodd" d="M75.8092 25.9006C75.7726 25.7748 75.7179 25.721 75.6266 25.6132L74.5498 24.2309C73.9655 23.4602 73.0177 22.1317 72.6161 21.3047C72.1963 21.4483 70.5731 23.4602 70.6449 23.6755C70.7008 23.7988 71.8496 25.1644 71.9407 25.289C72.1781 25.5594 73.8026 27.5162 73.9839 27.6049L74.4585 27.1919C74.5498 27.1021 74.6227 27.0674 74.714 26.9956L75.8092 25.9006Z" fill="white"/>
<path fill-rule="evenodd" clip-rule="evenodd" d="M81.922 36.9206L81.4656 36.4537C81.283 36.2934 81.1358 36.1485 80.9728 35.987L79.8972 34.9481C79.8606 34.8942 79.8229 34.8572 79.7682 34.82C79.4408 34.516 79.0939 34.2289 78.802 33.8877C78.7643 33.8339 78.7472 33.7991 78.7095 33.762C78.6546 33.7082 78.6193 33.6903 78.583 33.6544C78.4735 33.5478 78.1984 33.2234 78.0523 33.1875C77.9258 33.3502 77.7968 33.4748 77.652 33.6017C77.4865 33.7261 77.3953 33.9056 77.2322 34.0313C77.0691 34.1749 76.227 35.1444 76.0287 35.3585C75.9557 35.4496 75.901 35.5023 75.828 35.574C75.7367 35.6638 75.7172 35.6997 75.6272 35.7895C75.4812 35.9511 74.9153 36.6332 74.8789 36.723C75.0795 36.8666 76.1383 37.1718 76.4485 37.2448C77.7068 37.5489 79.0028 37.6027 80.278 37.3884C80.6078 37.3335 81.7564 37.1001 81.922 36.9206Z" fill="white"/>
<path fill-rule="evenodd" clip-rule="evenodd" d="M81.9942 21.5354C81.2459 22.1458 80.4623 22.8458 79.7333 23.4179L78.8926 24.1373C78.9291 24.2809 79.1663 24.5131 79.2576 24.6399L80.5535 25.9864C80.7531 25.9134 81.0087 25.6454 81.1911 25.5005L81.83 25.0349C82.049 24.8914 82.2693 24.7297 82.4701 24.567L85.5524 22.36C85.6253 22.2894 85.6253 22.2894 85.7178 22.2535C85.6071 22.0561 85.0413 21.5354 84.8052 21.3188C84.7491 21.2648 84.7128 21.2482 84.658 21.211C84.4572 21.0315 83.7453 20.4402 83.4179 20.3672L81.9942 21.5354Z" fill="white"/>
<path fill-rule="evenodd" clip-rule="evenodd" d="M73.5276 28.067C73.4533 27.9054 73.272 27.708 73.1625 27.5463C72.5601 26.6679 71.8836 25.7893 71.2836 24.9084C71.1559 24.7289 71.0269 24.5507 70.9003 24.3699C70.8456 24.2993 70.7713 24.1916 70.7166 24.1186C70.6813 24.0646 70.663 24.0289 70.6266 23.994C70.6082 23.9749 70.5705 23.921 70.5705 23.921L70.4805 23.8516C70.3345 24.1725 70.225 24.2993 70.0425 24.7827C69.9147 25.0892 69.787 25.465 69.6957 25.806C69.4767 26.5781 69.3477 27.386 69.3477 28.2298C69.3477 28.9838 69.6032 31.2075 70.0047 31.6215L70.444 31.1895C70.6266 31.0459 70.7166 30.9023 70.8638 30.7407L71.7582 29.843C71.9031 29.6646 72.0126 29.557 72.195 29.3953C72.2498 29.3415 72.2498 29.3248 72.3045 29.289C72.3593 29.235 72.3593 29.2158 72.414 29.162L73.3073 28.2836C73.3632 28.2297 73.491 28.1028 73.5276 28.067Z" fill="white"/>
<path d="M84.5756 29.3025L84.5756 29.3025L84.5734 29.3005C84.4695 29.2062 84.186 28.941 83.9192 28.6832C83.8551 28.6212 83.7926 28.5603 83.7343 28.5029L85.8401 26.6569C85.9031 26.6124 85.9418 26.5778 85.9909 26.53C86.081 26.4583 86.239 26.3278 86.4197 26.1787C86.5511 26.0702 86.6945 25.9519 86.8326 25.8389C86.925 25.7633 87.0157 25.6895 87.1009 25.6209C87.1154 25.6677 87.1299 25.7163 87.1443 25.7664C87.2369 26.0884 87.3154 26.436 87.3601 26.6473C87.4795 27.2644 87.5141 27.9071 87.4963 28.5987L87.4963 28.6027C87.4885 29.0442 87.3989 29.7362 87.249 30.3996C87.1746 30.7291 87.0875 31.0413 86.9927 31.3042C86.9776 31.3459 86.9627 31.3855 86.9479 31.4232C86.9302 31.4073 86.913 31.3917 86.8963 31.3766C86.8899 31.3708 86.8834 31.3649 86.8768 31.3589C86.8316 31.3179 86.7819 31.2728 86.7471 31.2439L86.3765 30.9303C86.3075 30.8661 86.2431 30.8232 86.2037 30.7982L84.5756 29.3025Z" fill="white" stroke="white"/>
</g>
<defs>
<clipPath id="clip0_249_790">
<rect width="150" height="94" fill="white"/>
</clipPath>
</defs>
</svg>
