<svg width="85" height="24" viewBox="0 0 85 24" fill="none" xmlns="http://www.w3.org/2000/svg">
<path d="M0.648 23V0.599998H2.6L18.056 20.056H17.032V0.599998H19.368V23H17.416L1.992 3.544H3.016V23H0.648ZM33.3353 23.16C31.5859 23.16 30.0499 22.7973 28.7273 22.072C27.4046 21.3253 26.3699 20.312 25.6233 19.032C24.8766 17.7307 24.5033 16.248 24.5033 14.584C24.5033 12.92 24.8553 11.448 25.5593 10.168C26.2846 8.888 27.2659 7.88533 28.5033 7.16C29.7619 6.41333 31.1699 6.04 32.7273 6.04C34.3059 6.04 35.7033 6.40267 36.9193 7.128C38.1566 7.832 39.1273 8.83467 39.8313 10.136C40.5353 11.416 40.8873 12.8987 40.8873 14.584C40.8873 14.6907 40.8766 14.808 40.8553 14.936C40.8553 15.0427 40.8553 15.16 40.8553 15.288H26.2313V13.592H39.6393L38.7433 14.264C38.7433 13.048 38.4766 11.9707 37.9433 11.032C37.4313 10.072 36.7273 9.32533 35.8313 8.792C34.9353 8.25867 33.9006 7.992 32.7273 7.992C31.5753 7.992 30.5406 8.25867 29.6233 8.792C28.7059 9.32533 27.9913 10.072 27.4793 11.032C26.9673 11.992 26.7113 13.0907 26.7113 14.328V14.68C26.7113 15.96 26.9886 17.0907 27.5433 18.072C28.1193 19.032 28.9086 19.7893 29.9113 20.344C30.9353 20.8773 32.0979 21.144 33.3993 21.144C34.4233 21.144 35.3726 20.9627 36.2473 20.6C37.1433 20.2373 37.9113 19.6827 38.5513 18.936L39.8313 20.408C39.0846 21.304 38.1459 21.9867 37.0153 22.456C35.9059 22.9253 34.6793 23.16 33.3353 23.16ZM48.6233 23L42.2873 6.2H44.4633L50.2233 21.784H49.2313L55.1513 6.2H57.1033L62.9593 21.784H61.9673L67.8233 6.2H69.9033L63.5353 23H61.3913L55.7593 8.344H56.4313L50.7673 23H48.6233ZM77.6488 23.16C76.2621 23.16 74.9501 22.968 73.7128 22.584C72.4754 22.1787 71.5048 21.6773 70.8008 21.08L71.8248 19.288C72.5074 19.8 73.3821 20.248 74.4488 20.632C75.5154 20.9947 76.6354 21.176 77.8088 21.176C79.4088 21.176 80.5608 20.9307 81.2648 20.44C81.9688 19.928 82.3208 19.256 82.3208 18.424C82.3208 17.8053 82.1181 17.3253 81.7128 16.984C81.3288 16.6213 80.8168 16.3547 80.1768 16.184C79.5368 15.992 78.8221 15.832 78.0328 15.704C77.2434 15.576 76.4541 15.4267 75.6648 15.256C74.8968 15.0853 74.1928 14.84 73.5528 14.52C72.9128 14.1787 72.3901 13.72 71.9848 13.144C71.6008 12.568 71.4088 11.8 71.4088 10.84C71.4088 9.92267 71.6648 9.10133 72.1768 8.376C72.6888 7.65067 73.4354 7.08533 74.4168 6.68C75.4194 6.25333 76.6354 6.04 78.0648 6.04C79.1528 6.04 80.2408 6.18933 81.3288 6.488C82.4168 6.76533 83.3128 7.13867 84.0168 7.608L83.0248 9.432C82.2781 8.92 81.4781 8.55733 80.6248 8.344C79.7714 8.10933 78.9181 7.992 78.0648 7.992C76.5501 7.992 75.4301 8.25867 74.7048 8.792C74.0008 9.304 73.6488 9.96533 73.6488 10.776C73.6488 11.416 73.8408 11.9173 74.2248 12.28C74.6301 12.6427 75.1528 12.9307 75.7928 13.144C76.4541 13.336 77.1688 13.496 77.9368 13.624C78.7261 13.752 79.5048 13.912 80.2728 14.104C81.0621 14.2747 81.7768 14.52 82.4168 14.84C83.0781 15.1387 83.6008 15.576 83.9848 16.152C84.3901 16.7067 84.5928 17.4427 84.5928 18.36C84.5928 19.3413 84.3154 20.1947 83.7608 20.92C83.2274 21.624 82.4381 22.1787 81.3928 22.584C80.3688 22.968 79.1208 23.16 77.6488 23.16Z" fill="white"/>
</svg>
