<svg width="125" height="39" viewBox="0 0 125 39" fill="none" xmlns="http://www.w3.org/2000/svg">
<g clip-path="url(#clip0_312_473)">
<mask id="mask0_312_473" style="mask-type:alpha" maskUnits="userSpaceOnUse" x="0" y="5" width="22" height="21">
<path d="M0.429688 5H21.9451V25.4991H0.429688V5Z" fill="white"/>
</mask>
<g mask="url(#mask0_312_473)">
<path fill-rule="evenodd" clip-rule="evenodd" d="M6.63396 17.2991C3.20525 17.2891 0.429688 14.5398 0.429688 11.1493C0.429688 7.75325 3.21532 5 6.65367 5H6.66287H11.3646C10.814 5.51385 10.47 6.24199 10.47 7.04978C10.47 7.85801 10.814 8.58571 11.3646 9.10043H6.65279C5.50726 9.10043 4.57901 10.0173 4.57901 11.1493C4.57901 12.2818 5.50726 13.2 6.65279 13.2H15.701L15.7203 13.1991C19.1582 13.1991 21.9451 15.9523 21.9451 19.3493C21.9451 22.745 19.1582 25.4991 15.7203 25.4991L15.7106 25.4983H2.50391C1.35882 25.4983 0.429688 24.5809 0.429688 23.4489C0.429688 22.3195 1.35312 21.4043 2.49383 21.3991H15.7203C16.8657 21.3991 17.7953 20.4809 17.7953 19.3493C17.7953 18.2169 16.8657 17.2991 15.7203 17.2991H6.63396Z" fill="#091860"/>
</g>
<mask id="mask1_312_473" style="mask-type:alpha" maskUnits="userSpaceOnUse" x="11" y="5" width="43" height="21">
<path d="M11.4941 5H53.4483V25.499H11.4941V5Z" fill="white"/>
</mask>
<g mask="url(#mask1_312_473)">
<path fill-rule="evenodd" clip-rule="evenodd" d="M26.9393 5C32.6679 5 37.3122 9.58918 37.3122 15.2498C37.3122 15.3247 37.3117 15.3992 37.31 15.4736L37.3122 15.477C37.3122 18.748 39.9957 21.3992 43.3049 21.3992C46.6161 21.3992 49.2997 18.748 49.2997 15.477V7.39134V7.04935C49.2997 5.91775 50.228 5 51.3735 5C52.5195 5 53.4486 5.91775 53.4486 7.04935V15.477C53.4486 21.0121 48.9072 25.4992 43.3049 25.4992C39.9804 25.4992 37.0288 23.9182 35.1793 21.4749C33.2833 23.9212 30.298 25.4992 26.9393 25.4992H19.4813C21.011 24.584 22.1705 23.1277 22.6906 21.3992H26.9393C30.3505 21.3992 33.1204 18.6874 33.1624 15.326C33.162 15.2308 33.1593 15.1273 33.1585 15.0182C33.0349 11.7286 30.298 9.1 26.9393 9.1H18.6407H13.5688C12.4228 9.1 11.4941 8.18225 11.4941 7.04935C11.4941 5.91775 12.4228 5 13.5688 5H26.9393Z" fill="#091860"/>
</g>
<path fill-rule="evenodd" clip-rule="evenodd" d="M33.4082 6.08138C33.7578 5.43766 34.4455 5 35.2367 5C36.3827 5 37.3113 5.91775 37.3113 7.04978V10.7874C36.472 8.88528 35.1122 7.25714 33.4082 6.08138Z" fill="#091860"/>
<path fill-rule="evenodd" clip-rule="evenodd" d="M41.3535 15.2479C41.3535 16.38 42.2822 17.2973 43.4281 17.2973C44.5741 17.2973 45.5033 16.38 45.5033 15.2479V7.04795C45.5033 6.4947 45.2816 5.99383 44.9215 5.625C44.4366 7.22413 43.0554 8.43972 41.3535 8.70249V15.2479Z" fill="#091860"/>
<path fill-rule="evenodd" clip-rule="evenodd" d="M29.9379 12.3271C29.8853 12.2102 29.3264 12.0418 29.2352 12.0154C28.7162 11.8665 28.1511 11.8531 27.6192 11.9634C27.5075 11.9899 27.1199 12.0933 27.041 12.1453C27.0673 12.1972 27.2775 12.4505 27.3236 12.5158L27.4747 12.6911C27.5995 12.8405 27.8882 13.1972 28.0003 13.3076L28.2233 13.5539C28.2628 13.5413 28.2956 13.5085 28.3351 13.4825C28.3679 13.4505 28.4007 13.4241 28.4402 13.3985C28.4796 13.3656 28.5059 13.3461 28.5453 13.3137C28.5847 13.2881 28.611 13.2686 28.6439 13.2361L28.8541 13.0799C29.071 12.918 29.2545 12.7751 29.4845 12.6067C29.5634 12.5543 29.8591 12.3535 29.9379 12.3271Z" fill="#091860"/>
<path fill-rule="evenodd" clip-rule="evenodd" d="M29.4713 15.3319C29.4447 15.2604 29.2742 15.1046 29.2217 15.0462L28.9588 14.7734L28.6368 15.0722C28.6106 15.0981 28.5913 15.1111 28.565 15.1306C28.5453 15.15 28.5317 15.1696 28.5059 15.1955C28.4792 15.2215 28.4533 15.228 28.4336 15.2604C28.4989 15.3774 28.8734 15.7345 28.9396 15.7795L29.3662 15.4228L29.3991 15.3903C29.4319 15.3708 29.4447 15.3578 29.4713 15.3319Z" fill="#091860"/>
<path fill-rule="evenodd" clip-rule="evenodd" d="M28.7161 15.9929C28.7029 15.941 28.5189 15.7657 28.4795 15.7202C28.4335 15.6683 28.2758 15.4869 28.2233 15.4609C28.151 15.5059 27.9805 15.6877 27.9144 15.7527C27.8947 15.7787 27.875 15.8046 27.8491 15.8306L27.6976 15.9799C27.6717 16.0124 27.652 16.0124 27.6191 16.0514C27.652 16.1423 27.8816 16.3501 27.974 16.441C28.02 16.4865 28.0327 16.512 28.1049 16.5579C28.1444 16.5449 28.151 16.5185 28.1838 16.4865C28.3021 16.3631 28.6175 16.1103 28.7161 15.9929Z" fill="#091860"/>
<path fill-rule="evenodd" clip-rule="evenodd" d="M28.788 14.5825C28.781 14.563 28.7354 14.518 28.7223 14.4981C28.696 14.4786 28.7026 14.4786 28.6829 14.4526L28.6434 14.4137L28.2102 13.9141C28.1239 13.979 27.8028 14.2647 27.7568 14.3227C27.7239 14.3557 27.6779 14.3751 27.6582 14.4331L28.0126 14.8357C28.0393 14.8682 28.2168 15.0435 28.2562 15.0565L28.788 14.5825Z" fill="#091860"/>
<path fill-rule="evenodd" clip-rule="evenodd" d="M28.0326 15.2302C27.9209 15.0743 27.8092 14.9769 27.6976 14.834C27.6585 14.7821 27.5266 14.6202 27.4812 14.5938C27.4413 14.6132 27.3493 14.7046 27.3169 14.7362L27.0014 15.0548C26.9423 15.1128 26.8963 15.1457 26.8438 15.2232C26.8635 15.2622 26.9423 15.3531 26.9752 15.3795C27.0211 15.4245 27.0672 15.496 27.1131 15.5354C27.1657 15.5938 27.3558 15.808 27.4022 15.8271L27.7308 15.5354C27.7632 15.496 28.0129 15.2821 28.0326 15.2302Z" fill="#091860"/>
<path fill-rule="evenodd" clip-rule="evenodd" d="M27.888 16.7786C27.8617 16.7267 27.8091 16.6877 27.7763 16.6427L27.5988 16.4474C27.5726 16.415 27.4346 16.2722 27.4083 16.2656C27.3952 16.2916 27.3562 16.3306 27.3303 16.3566C27.2379 16.4474 27.0938 16.6098 27.0342 16.6618L26.9488 16.7592C26.9357 16.7786 26.9225 16.7851 26.9028 16.7981L26.5743 17.1682C26.5546 17.1877 26.5479 17.1877 26.5348 17.2068C26.5151 17.2262 26.5151 17.2392 26.4954 17.2522C26.41 17.3302 26.1344 17.6743 26.1016 17.7392C26.1147 17.7522 26.1016 17.7457 26.1147 17.7522C26.1735 17.8042 26.5479 18.0899 26.6071 18.0899C26.6334 18.0899 26.6991 18.012 26.7122 17.9925L26.916 17.7652C26.9685 17.7198 26.9816 17.6873 27.0277 17.6483L27.888 16.7786Z" fill="#091860"/>
<path fill-rule="evenodd" clip-rule="evenodd" d="M31.173 16.9801L30.4037 16.2472C30.2469 16.1043 29.9184 15.7533 29.8461 15.6887C29.7799 15.6299 29.7076 15.5325 29.6551 15.5C29.6293 15.513 29.6157 15.5264 29.5898 15.5459C29.504 15.6104 29.2091 15.8896 29.1426 15.9741C29.1692 16.0329 29.373 16.2143 29.4391 16.2727C29.4711 16.3052 29.4978 16.3381 29.5373 16.3701C29.6621 16.4801 29.9381 16.7533 30.0498 16.8373C30.1282 16.9022 30.3188 17.0905 30.4112 17.1619L30.7919 17.4741C30.8707 17.4347 31.1462 17.071 31.173 16.9801Z" fill="#091860"/>
<path fill-rule="evenodd" clip-rule="evenodd" d="M27.2055 16.0413C27.1989 16.0023 27.0609 15.8339 27.0153 15.788C26.9492 15.7101 26.7197 15.4248 26.6539 15.3984C26.6342 15.4378 26.5357 15.5153 26.4962 15.5672L26.0888 16.0088C25.971 16.1257 25.8523 16.275 25.7349 16.3984C25.7147 16.4179 25.7016 16.4244 25.6885 16.4439C25.6626 16.4694 25.6359 16.5019 25.6096 16.5348C25.5242 16.6452 25.4848 16.7032 25.373 16.8006C25.3993 16.911 25.5176 17.0733 25.5706 17.1448C25.6227 17.2097 25.78 17.398 25.8071 17.45C25.8588 17.4305 26.0034 17.2876 26.0363 17.2486L26.1151 17.1512C26.1874 17.0604 26.286 16.963 26.3714 16.8785C26.3845 16.8656 26.3977 16.8526 26.4113 16.8331C26.4371 16.8006 26.4699 16.7681 26.4962 16.7422L26.5816 16.6578L27.0219 16.2166C27.0806 16.1586 27.1402 16.0802 27.2055 16.0413Z" fill="#091860"/>
<path fill-rule="evenodd" clip-rule="evenodd" d="M28.0531 13.7274C28.0268 13.6689 27.173 12.5074 27.0284 12.2932C27.0026 12.2542 26.9759 12.2278 26.9562 12.1953C26.7722 12.2213 26.1742 12.6308 26.1817 12.6824L26.3324 12.8772C26.5947 13.1893 26.851 13.52 27.127 13.8447L27.4617 14.2213C27.5344 14.1884 27.9348 13.8057 28.0531 13.7274Z" fill="#091860"/>
<path fill-rule="evenodd" clip-rule="evenodd" d="M30.5219 17.7598C30.5022 17.7144 30.4567 17.6884 30.4299 17.6559L30.1146 17.3702C30.0817 17.3373 30.0559 17.3118 30.016 17.2728L29.8648 17.1304C29.7803 17.059 29.7536 17.0265 29.708 16.9871C29.5634 16.8576 29.3072 16.565 29.1688 16.4352C29.1162 16.3901 29.0706 16.3576 29.0111 16.2862C28.9791 16.2472 28.9524 16.2208 28.8994 16.1953C28.8205 16.2793 28.361 16.7148 28.3281 16.7793C28.3873 16.8772 28.6041 17.0715 28.7031 17.1559C28.7289 17.1814 28.7425 17.2014 28.7618 17.2208L29.0965 17.526C29.1232 17.5455 29.1294 17.565 29.1556 17.5845L29.8324 18.1685C29.8719 18.1944 29.878 18.1944 29.9179 18.175C30.0883 18.0776 30.2262 17.9866 30.3774 17.8702L30.5219 17.7598Z" fill="#091860"/>
<path fill-rule="evenodd" clip-rule="evenodd" d="M31.3832 13.8783C31.3701 13.7484 31.0349 13.2289 30.9167 13.125C30.8637 13.1449 30.7392 13.2488 30.6937 13.2873L30.1483 13.7419C30.0169 13.8519 29.708 14.0925 29.5964 14.2029L29.3795 14.3843C29.3274 14.4363 29.2091 14.5397 29.1758 14.5856C29.2218 14.67 29.2941 14.722 29.3598 14.7869L29.5569 14.9878C29.5964 15.0267 29.6621 15.0726 29.6818 15.1246C29.7672 15.0982 30.398 14.5856 30.5224 14.4882C30.5881 14.4293 30.6609 14.3843 30.7327 14.3324L31.1664 14.0337C31.1992 14.0081 31.2386 13.9821 31.2715 13.9562C31.3109 13.9233 31.3437 13.9042 31.3832 13.8783Z" fill="#091860"/>
<path fill-rule="evenodd" clip-rule="evenodd" d="M27.2916 14.3655C27.2785 14.32 27.2588 14.3005 27.2259 14.2615L26.8382 13.7615C26.6279 13.4828 26.2867 13.0023 26.1421 12.7031C25.991 12.7551 25.4066 13.4828 25.4325 13.5607C25.4526 13.6053 25.8662 14.0992 25.899 14.1443C25.9844 14.2421 26.5692 14.9499 26.6345 14.9819L26.8054 14.8325C26.8382 14.8001 26.8645 14.7875 26.8974 14.7615L27.2916 14.3655Z" fill="#091860"/>
<path fill-rule="evenodd" clip-rule="evenodd" d="M29.4925 18.3503L29.3282 18.1814C29.2625 18.1234 29.2095 18.071 29.1508 18.0126L28.7636 17.6368C28.7504 17.6173 28.7369 17.6039 28.7172 17.5905C28.5993 17.4805 28.4744 17.3767 28.3693 17.2533C28.3558 17.2338 28.3496 17.2212 28.3361 17.2078C28.3163 17.1883 28.3036 17.1819 28.2905 17.1689C28.2511 17.1303 28.1521 17.013 28.0995 17C28.0539 17.0589 28.0075 17.1039 27.9554 17.1498C27.8958 17.1948 27.8629 17.2597 27.8042 17.3052C27.7455 17.3571 27.4424 17.7078 27.3709 17.7853C27.3447 17.8182 27.325 17.8373 27.2987 17.8632C27.2658 17.8957 27.2588 17.9087 27.2264 17.9411C27.1738 17.9996 26.9701 18.2463 26.957 18.2788C27.0293 18.3307 27.4104 18.4411 27.5221 18.4675C27.9751 18.5775 28.4416 18.597 28.9007 18.5195C29.0194 18.4996 29.4329 18.4152 29.4925 18.3503Z" fill="#091860"/>
<path fill-rule="evenodd" clip-rule="evenodd" d="M29.517 12.7897C29.2476 13.0105 28.9655 13.2637 28.7031 13.4707L28.4004 13.7309C28.4136 13.7828 28.4989 13.8668 28.5318 13.9127L28.9983 14.3997C29.0702 14.3733 29.1622 14.2763 29.2279 14.2239L29.4578 14.0555C29.5367 14.0036 29.616 13.9451 29.6883 13.8863L30.7979 13.088C30.8242 13.0625 30.8242 13.0625 30.8575 13.0495C30.8176 12.9781 30.6139 12.7897 30.5289 12.7114C30.5088 12.6919 30.4957 12.6859 30.4759 12.6724C30.4037 12.6075 30.1474 12.3936 30.0295 12.3672L29.517 12.7897Z" fill="#091860"/>
<path fill-rule="evenodd" clip-rule="evenodd" d="M26.4696 15.1497C26.4429 15.0913 26.3776 15.0199 26.3382 14.9614C26.1213 14.6437 25.8778 14.3259 25.6618 14.0073C25.6158 13.9423 25.5694 13.8779 25.5238 13.8125C25.5041 13.7869 25.4774 13.748 25.4577 13.7216C25.445 13.7021 25.4384 13.6891 25.4253 13.6765C25.4186 13.6696 25.4051 13.6501 25.4051 13.6501L25.3727 13.625C25.3201 13.7411 25.2807 13.7869 25.215 13.9618C25.169 14.0727 25.123 14.2086 25.0901 14.3319C25.0113 14.6112 24.9648 14.9034 24.9648 15.2086C24.9648 15.4813 25.0568 16.2857 25.2014 16.4354L25.3595 16.2791C25.4253 16.2272 25.4577 16.1753 25.5106 16.1168L25.8326 15.7921C25.8848 15.7276 25.9242 15.6887 25.9899 15.6302C26.0096 15.6107 26.0096 15.6047 26.0293 15.5917C26.049 15.5722 26.049 15.5653 26.0687 15.5458L26.3903 15.2281C26.4104 15.2086 26.4565 15.1627 26.4696 15.1497Z" fill="#091860"/>
<path d="M30.6154 15.3181L31.1024 14.8891C31.1242 14.8728 31.1417 14.858 31.1577 14.8433C31.1767 14.9954 31.1824 15.1573 31.1779 15.3344L31.1778 15.3384C31.176 15.444 31.1576 15.6106 31.1245 15.7882L30.6637 15.3629L30.6637 15.3629L30.6615 15.3609C30.6513 15.3516 30.6353 15.3367 30.6154 15.3181Z" fill="#091860" stroke="#091860"/>
</g>
<path d="M60.736 23V6.2H62.2L73.792 20.792H73.024V6.2H74.776V23H73.312L61.744 8.408H62.512V23H60.736ZM85.2514 23.12C83.9394 23.12 82.7874 22.848 81.7954 22.304C80.8034 21.744 80.0274 20.984 79.4674 20.024C78.9074 19.048 78.6274 17.936 78.6274 16.688C78.6274 15.44 78.8914 14.336 79.4194 13.376C79.9634 12.416 80.6994 11.664 81.6274 11.12C82.5714 10.56 83.6274 10.28 84.7954 10.28C85.9794 10.28 87.0274 10.552 87.9394 11.096C88.8674 11.624 89.5954 12.376 90.1234 13.352C90.6514 14.312 90.9154 15.424 90.9154 16.688C90.9154 16.768 90.9074 16.856 90.8914 16.952C90.8914 17.032 90.8914 17.12 90.8914 17.216H79.9234V15.944H89.9794L89.3074 16.448C89.3074 15.536 89.1074 14.728 88.7074 14.024C88.3234 13.304 87.7954 12.744 87.1234 12.344C86.4514 11.944 85.6754 11.744 84.7954 11.744C83.9314 11.744 83.1554 11.944 82.4674 12.344C81.7794 12.744 81.2434 13.304 80.8594 14.024C80.4754 14.744 80.2834 15.568 80.2834 16.496V16.76C80.2834 17.72 80.4914 18.568 80.9074 19.304C81.3394 20.024 81.9314 20.592 82.6834 21.008C83.4514 21.408 84.3234 21.608 85.2994 21.608C86.0674 21.608 86.7794 21.472 87.4354 21.2C88.1074 20.928 88.6834 20.512 89.1634 19.952L90.1234 21.056C89.5634 21.728 88.8594 22.24 88.0114 22.592C87.1794 22.944 86.2594 23.12 85.2514 23.12ZM96.7174 23L91.9654 10.4H93.5974L97.9174 22.088H97.1734L101.613 10.4H103.077L107.469 22.088H106.725L111.117 10.4H112.677L107.901 23H106.293L102.069 12.008H102.573L98.3254 23H96.7174ZM118.487 23.12C117.447 23.12 116.463 22.976 115.535 22.688C114.607 22.384 113.879 22.008 113.351 21.56L114.119 20.216C114.631 20.6 115.287 20.936 116.087 21.224C116.887 21.496 117.727 21.632 118.607 21.632C119.807 21.632 120.671 21.448 121.199 21.08C121.727 20.696 121.991 20.192 121.991 19.568C121.991 19.104 121.839 18.744 121.535 18.488C121.247 18.216 120.863 18.016 120.383 17.888C119.903 17.744 119.367 17.624 118.775 17.528C118.183 17.432 117.591 17.32 116.999 17.192C116.423 17.064 115.895 16.88 115.415 16.64C114.935 16.384 114.543 16.04 114.239 15.608C113.951 15.176 113.807 14.6 113.807 13.88C113.807 13.192 113.999 12.576 114.383 12.032C114.767 11.488 115.327 11.064 116.063 10.76C116.815 10.44 117.727 10.28 118.799 10.28C119.615 10.28 120.431 10.392 121.247 10.616C122.063 10.824 122.735 11.104 123.263 11.456L122.519 12.824C121.959 12.44 121.359 12.168 120.719 12.008C120.079 11.832 119.439 11.744 118.799 11.744C117.663 11.744 116.823 11.944 116.279 12.344C115.751 12.728 115.487 13.224 115.487 13.832C115.487 14.312 115.631 14.688 115.919 14.96C116.223 15.232 116.615 15.448 117.095 15.608C117.591 15.752 118.127 15.872 118.703 15.968C119.295 16.064 119.879 16.184 120.455 16.328C121.047 16.456 121.583 16.64 122.063 16.88C122.559 17.104 122.951 17.432 123.239 17.864C123.543 18.28 123.695 18.832 123.695 19.52C123.695 20.256 123.487 20.896 123.071 21.44C122.671 21.968 122.079 22.384 121.295 22.688C120.527 22.976 119.591 23.12 118.487 23.12Z" fill="#091860"/>
<defs>
<clipPath id="clip0_312_473">
<rect width="54" height="34" fill="white" transform="translate(0 5)"/>
</clipPath>
</defs>
</svg>
