<svg width="35" height="35" viewBox="0 0 35 35" fill="none" xmlns="http://www.w3.org/2000/svg">
<path d="M11.666 8.38281C11.0681 8.38281 10.5723 7.88698 10.5723 7.28906V2.91406C10.5723 2.31615 11.0681 1.82031 11.666 1.82031C12.2639 1.82031 12.7598 2.31615 12.7598 2.91406V7.28906C12.7598 7.88698 12.2639 8.38281 11.666 8.38281Z" fill="white"/>
<path d="M23.334 8.38281C22.7361 8.38281 22.2402 7.88698 22.2402 7.28906V2.91406C22.2402 2.31615 22.7361 1.82031 23.334 1.82031C23.9319 1.82031 24.4277 2.31615 24.4277 2.91406V7.28906C24.4277 7.88698 23.9319 8.38281 23.334 8.38281Z" fill="white"/>
<path d="M21.4083 33.1745H11.6667C6.34375 33.1745 3.28125 30.112 3.28125 24.7891V12.3932C3.28125 7.07031 6.34375 4.00781 11.6667 4.00781H23.3333C28.6562 4.00781 31.7188 7.07031 31.7188 12.3932V19.8745C31.7188 20.2974 31.4708 20.6766 31.1062 20.8661C30.7271 21.0411 30.275 20.9974 29.9542 20.7349C27.65 18.8974 24.1063 18.8974 21.8021 20.7786C20.2271 22.0182 19.3375 23.8703 19.3375 25.8974C19.3375 27.0932 19.6583 28.2599 20.2854 29.2662C20.7667 30.0537 21.3646 30.7099 22.0646 31.2058C22.4438 31.4828 22.6188 31.9786 22.4729 32.4307C22.2979 32.8682 21.8896 33.1745 21.4083 33.1745ZM11.6667 6.19531C7.49583 6.19531 5.46875 8.2224 5.46875 12.3932V24.7891C5.46875 28.9599 7.49583 30.987 11.6667 30.987H18.7979C18.6521 30.7974 18.5208 30.5933 18.4042 30.3891C17.5729 29.0474 17.1354 27.487 17.1354 25.8828C17.1354 23.1849 18.3313 20.7057 20.4313 19.0578C22.925 17.0307 26.6146 16.5932 29.5312 17.9349V12.3932C29.5312 8.2224 27.5042 6.19531 23.3333 6.19531H11.6667Z" fill="white"/>
<path d="M18.959 17.1328H10.209C9.61107 17.1328 9.11523 16.637 9.11523 16.0391C9.11523 15.4411 9.61107 14.9453 10.209 14.9453H18.959C19.5569 14.9453 20.0527 15.4411 20.0527 16.0391C20.0527 16.637 19.5569 17.1328 18.959 17.1328Z" fill="white"/>
<path d="M14.0298 24.4297H10.209C9.61107 24.4297 9.11523 23.9339 9.11523 23.3359C9.11523 22.738 9.61107 22.2422 10.209 22.2422H14.0298C14.6277 22.2422 15.1236 22.738 15.1236 23.3359C15.1236 23.9339 14.6423 24.4297 14.0298 24.4297Z" fill="white"/>
<path d="M25.8848 34.6376C24.0181 34.6376 22.2535 34.0542 20.766 32.9751C19.8327 32.3042 19.0306 31.4293 18.4035 30.3939C17.5723 29.0522 17.1348 27.4917 17.1348 25.8876C17.1348 23.1897 18.3306 20.7105 20.4306 19.0626C23.4639 16.598 28.2473 16.5834 31.3098 19.0188C33.4244 20.6813 34.6348 23.1897 34.6348 25.8876C34.6348 27.4917 34.1973 29.0522 33.366 30.3939C32.8994 31.1959 32.3014 31.8959 31.616 32.4647C30.0556 33.8647 28.0139 34.6376 25.8848 34.6376ZM25.8848 19.3251C24.3973 19.3251 22.9389 19.8355 21.7869 20.7688C20.2119 22.0084 19.3223 23.8605 19.3223 25.8876C19.3223 27.0834 19.6431 28.2501 20.2702 29.2563C20.7514 30.0438 21.3493 30.7001 22.0493 31.1959C23.1723 32.0126 24.4993 32.4501 25.8848 32.4501C27.5035 32.4501 28.991 31.8813 30.1869 30.8168C30.7119 30.3793 31.1348 29.8688 31.4848 29.2709C32.1118 28.2501 32.4473 27.0834 32.4473 25.8876C32.4473 23.8605 31.5431 21.9938 29.9535 20.7396C28.7869 19.8063 27.3869 19.3251 25.8848 19.3251Z" fill="white"/>
<path d="M25.8861 30.6276C25.2882 30.6276 24.7923 30.1318 24.7923 29.5339C24.7923 28.1339 23.6402 26.9818 22.2402 26.9818C21.6423 26.9818 21.1465 26.4859 21.1465 25.888C21.1465 25.2901 21.6423 24.7943 22.2402 24.7943C23.6402 24.7943 24.7923 23.6422 24.7923 22.2422C24.7923 21.6443 25.2882 21.1484 25.8861 21.1484C26.484 21.1484 26.9798 21.6443 26.9798 22.2422C26.9798 23.6422 28.1319 24.7943 29.5319 24.7943C30.1298 24.7943 30.6257 25.2901 30.6257 25.888C30.6257 26.4859 30.1298 26.9818 29.5319 26.9818C28.1319 26.9818 26.9798 28.1339 26.9798 29.5339C26.9798 30.1318 26.484 30.6276 25.8861 30.6276ZM25.259 25.888C25.4777 26.0776 25.6965 26.2818 25.8861 26.5151C26.0757 26.2963 26.2798 26.0776 26.5131 25.888C26.2944 25.6984 26.0757 25.4943 25.8861 25.2609C25.6965 25.4943 25.4923 25.6984 25.259 25.888Z" fill="white"/>
</svg>
