<svg width="35" height="35" viewBox="0 0 35 35" fill="none" xmlns="http://www.w3.org/2000/svg">
<path d="M21.8759 33.1792H13.1259C11.2009 33.1792 9.59676 32.9897 8.24051 32.5813C7.74468 32.4355 7.42384 31.9542 7.45301 31.4438C7.81759 27.0834 12.2363 23.6562 17.5009 23.6562C22.7655 23.6562 27.1697 27.0688 27.5488 31.4438C27.5926 31.9688 27.2718 32.4355 26.7613 32.5813C25.4051 32.9897 23.8009 33.1792 21.8759 33.1792ZM9.80093 30.7146C10.7634 30.9042 11.8572 30.9917 13.1259 30.9917H21.8759C23.1447 30.9917 24.2384 30.9042 25.2009 30.7146C24.428 27.9146 21.2343 25.8438 17.5009 25.8438C13.7676 25.8438 10.5738 27.9146 9.80093 30.7146Z" fill="white"/>
<path d="M21.8743 2.91406H13.1243C5.83268 2.91406 2.91602 5.83073 2.91602 13.1224V21.8724C2.91602 27.3849 4.57852 30.4036 8.54518 31.5266C8.86602 27.7349 12.7598 24.7453 17.4993 24.7453C22.2389 24.7453 26.1327 27.7349 26.4535 31.5266C30.4202 30.4036 32.0827 27.3849 32.0827 21.8724V13.1224C32.0827 5.83073 29.166 2.91406 21.8743 2.91406ZM17.4993 20.662C14.6118 20.662 12.2785 18.3141 12.2785 15.4266C12.2785 12.5391 14.6118 10.2057 17.4993 10.2057C20.3868 10.2057 22.7202 12.5391 22.7202 15.4266C22.7202 18.3141 20.3868 20.662 17.4993 20.662Z" stroke="white" stroke-width="1.5" stroke-linecap="round" stroke-linejoin="round"/>
<path d="M17.5001 21.7609C14.0147 21.7609 11.1855 18.9172 11.1855 15.4318C11.1855 11.9464 14.0147 9.11719 17.5001 9.11719C20.9855 9.11719 23.8147 11.9464 23.8147 15.4318C23.8147 18.9172 20.9855 21.7609 17.5001 21.7609ZM17.5001 11.3047C15.2251 11.3047 13.373 13.1568 13.373 15.4318C13.373 17.7214 15.2251 19.5734 17.5001 19.5734C19.7751 19.5734 21.6272 17.7214 21.6272 15.4318C21.6272 13.1568 19.7751 11.3047 17.5001 11.3047Z" fill="white"/>
</svg>
