<svg width="39" height="41" viewBox="0 0 39 41" fill="none" xmlns="http://www.w3.org/2000/svg">
<g filter="url(#filter0_d_312_634)">
<path d="M19.5006 20.4167C19.5006 17.5 21.799 17.0119 22.5904 16.2224C23.3844 15.4304 23.8756 14.3351 23.8756 13.125C23.8756 10.7088 21.9169 8.75 19.5006 8.75C18.1941 8.75 17.0213 9.32273 16.2197 10.2308C15.849 10.6507 15.5577 11.1423 15.3691 11.6821" stroke="#091860" stroke-linecap="round"/>
<path fill-rule="evenodd" clip-rule="evenodd" d="M19.4993 26.2526C20.3048 26.2526 20.9577 25.5997 20.9577 24.7943C20.9577 23.9889 20.3048 23.3359 19.4993 23.3359C18.6939 23.3359 18.041 23.9889 18.041 24.7943C18.041 25.5997 18.6939 26.2526 19.4993 26.2526Z" fill="#091860"/>
<path fill-rule="evenodd" clip-rule="evenodd" d="M19.4993 32.0807C27.5535 32.0807 34.0827 25.5515 34.0827 17.4974C34.0827 9.44324 27.5535 2.91406 19.4993 2.91406C11.4452 2.91406 4.91602 9.44324 4.91602 17.4974C4.91602 25.5515 11.4452 32.0807 19.4993 32.0807Z" stroke="#091860"/>
</g>
<defs>
<filter id="filter0_d_312_634" x="-2" y="0" width="43" height="43" filterUnits="userSpaceOnUse" color-interpolation-filters="sRGB">
<feFlood flood-opacity="0" result="BackgroundImageFix"/>
<feColorMatrix in="SourceAlpha" type="matrix" values="0 0 0 0 0 0 0 0 0 0 0 0 0 0 0 0 0 0 127 0" result="hardAlpha"/>
<feOffset dy="4"/>
<feGaussianBlur stdDeviation="2"/>
<feComposite in2="hardAlpha" operator="out"/>
<feColorMatrix type="matrix" values="0 0 0 0 0 0 0 0 0 0 0 0 0 0 0 0 0 0 0.25 0"/>
<feBlend mode="normal" in2="BackgroundImageFix" result="effect1_dropShadow_312_634"/>
<feBlend mode="normal" in="SourceGraphic" in2="effect1_dropShadow_312_634" result="shape"/>
</filter>
</defs>
</svg>
