<svg width="35" height="35" viewBox="0 0 35 35" fill="none" xmlns="http://www.w3.org/2000/svg">
<g clip-path="url(#clip0_385_688)">
<path d="M7.29232 2.91406H27.709C28.0958 2.91406 28.4667 3.06771 28.7402 3.3412C29.0137 3.61469 29.1673 3.98562 29.1673 4.3724V32.2893C29.1675 32.4197 29.1327 32.5477 29.0665 32.6601C29.0004 32.7724 28.9053 32.865 28.7913 32.9281C28.6772 32.9913 28.5483 33.0227 28.4179 33.0191C28.2876 33.0155 28.1606 32.977 28.0502 32.9076L17.5007 26.2911L6.95107 32.9061C6.84077 32.9754 6.71392 33.0139 6.58372 33.0176C6.45351 33.0213 6.32469 32.99 6.21066 32.927C6.09664 32.8641 6.00156 32.7717 5.93531 32.6595C5.86907 32.5474 5.83408 32.4195 5.83398 32.2893V4.3724C5.83398 3.98562 5.98763 3.61469 6.26112 3.3412C6.53461 3.06771 6.90554 2.91406 7.29232 2.91406Z" fill="white"/>
</g>
<defs>
<clipPath id="clip0_385_688">
<rect width="35" height="35" fill="white"/>
</clipPath>
</defs>
</svg>
