<svg width="35" height="35" viewBox="0 0 35 35" fill="none" xmlns="http://www.w3.org/2000/svg">
<path fill-rule="evenodd" clip-rule="evenodd" d="M12.51 4.68376C12.6725 2.07001 14.845 0 17.5 0C20.155 0 22.3275 2.07001 22.49 4.68376C22.6738 4.75501 22.855 4.83 23.0338 4.90875C24.9975 3.17625 27.9963 3.24752 29.875 5.12627C31.7525 7.00377 31.8237 10.0025 30.0912 11.9662C30.17 12.145 30.245 12.3262 30.3162 12.51C32.93 12.6725 35 14.845 35 17.5C35 20.155 32.93 22.3275 30.3162 22.49C30.245 22.6738 30.17 22.855 30.0912 23.0338C31.8237 24.9975 31.7525 27.9962 29.8737 29.8737C27.9962 31.7525 24.9975 31.8237 23.0338 30.0912C22.855 30.17 22.6738 30.245 22.49 30.3162C22.3275 32.93 20.155 35 17.5 35C14.845 35 12.6725 32.93 12.51 30.3162C12.3262 30.245 12.145 30.17 11.9662 30.0912C10.0025 31.8237 7.00377 31.7525 5.12627 29.8737C3.24752 27.9962 3.17625 24.9975 4.90875 23.0338C4.83 22.855 4.75501 22.6738 4.68376 22.49C2.07001 22.3275 0 20.155 0 17.5C0 14.845 2.07001 12.6725 4.68376 12.51C4.75501 12.3262 4.83 12.145 4.90875 11.9662C3.17625 10.0025 3.24752 7.00377 5.12627 5.12627C7.00377 3.24752 10.0025 3.17625 11.9662 4.90875C12.145 4.83 12.3262 4.75501 12.51 4.68376ZM6.89377 10.4288C7.52877 11.065 7.64503 12.005 7.29378 12.7587C7.16128 13.0462 7.04001 13.3387 6.93001 13.6375C6.64501 14.4187 5.89875 15 5 15C3.61875 15 2.5 16.1187 2.5 17.5C2.5 18.8813 3.61875 20 5 20C5.89875 20 6.64501 20.5813 6.93001 21.3625C7.04001 21.6613 7.16128 21.9538 7.29378 22.2413C7.64503 22.995 7.52877 23.935 6.89377 24.5712C5.91752 25.5475 5.91752 27.13 6.89377 28.1062C7.87002 29.0825 9.45252 29.0825 10.4288 28.1062C11.065 27.4712 12.005 27.355 12.7587 27.7062C13.0462 27.8387 13.3387 27.96 13.6375 28.07C14.4187 28.355 15 29.1012 15 30C15 31.3813 16.1187 32.5 17.5 32.5C18.8813 32.5 20 31.3813 20 30C20 29.1012 20.5813 28.355 21.3625 28.07C21.6613 27.96 21.955 27.8387 22.2413 27.7062C22.995 27.355 23.935 27.4712 24.5712 28.1062C25.5475 29.0825 27.13 29.0825 28.1062 28.1062C29.0825 27.13 29.0825 25.5475 28.1062 24.5712C27.4712 23.935 27.355 22.995 27.7062 22.2413C27.8387 21.9538 27.96 21.6613 28.07 21.3625C28.355 20.5813 29.1012 20 30 20C31.3813 20 32.5 18.8813 32.5 17.5C32.5 16.1187 31.3813 15 30 15C29.1012 15 28.355 14.4187 28.07 13.6375C27.96 13.3387 27.8387 13.0462 27.7062 12.7587C27.355 12.005 27.4712 11.065 28.1062 10.4288C29.0825 9.45252 29.0825 7.87002 28.1062 6.89377C27.13 5.91752 25.5475 5.91752 24.5712 6.89377C23.935 7.52877 22.995 7.64503 22.2413 7.29378C21.955 7.16128 21.6613 7.04001 21.3625 6.93001C20.5813 6.64501 20 5.89875 20 5C20 3.61875 18.8813 2.5 17.5 2.5C16.1187 2.5 15 3.61875 15 5C15 5.89875 14.4187 6.64501 13.6375 6.93001C13.3387 7.04001 13.045 7.16128 12.7587 7.29378C12.005 7.64503 11.065 7.52877 10.4288 6.89377C9.45252 5.91752 7.87002 5.91752 6.89377 6.89377C5.91752 7.87002 5.91752 9.45252 6.89377 10.4288Z" fill="white"/>
</svg>
